<?xml version="1.0" encoding="UTF-8"?>
<svg version="1.1" xmlns="http://www.w3.org/2000/svg" width="250" height="250">
<path d="M0 0 C4.08005075 1.90314234 7.20617166 4.60829133 10.5625 7.5625 C11.82464212 8.65986564 13.08767134 9.75621177 14.3515625 10.8515625 C15.28403809 11.66028809 15.28403809 11.66028809 16.23535156 12.48535156 C18.59986658 14.51488271 21.01360529 16.47945893 23.4375 18.4375 C28.54227843 22.57996379 33.49622682 26.88119099 38.45068359 31.20068359 C42.95959326 35.12262104 47.54707017 38.93039115 52.19140625 42.69140625 C56.11839602 45.91929353 59.96082059 49.24231422 63.81103516 52.56103516 C67.31254253 55.5725803 70.84795521 58.53066209 74.4375 61.4375 C79.65592849 65.67117304 84.72867197 70.06152209 89.78686523 74.48413086 C90.39087158 75.01143799 90.99487793 75.53874512 91.6171875 76.08203125 C92.19436523 76.58686035 92.77154297 77.09168945 93.36621094 77.61181641 C94.80908491 78.83778494 96.31114543 79.99334702 97.8203125 81.13671875 C100.9525542 83.8142802 101.82727798 85.71094829 102.37109375 89.76953125 C102.59202573 99.89341424 102.59202573 99.89341424 98.7890625 104.3125 C95.2354201 107.66440724 91.43727977 110.68499157 87.60498047 113.70947266 C84.71992927 116.02927501 81.92694317 118.45605626 79.125 120.875 C77.93378083 121.89995705 76.74237399 122.92469603 75.55078125 123.94921875 C74.96119629 124.45630371 74.37161133 124.96338867 73.76416016 125.48583984 C67.09267077 131.2119092 60.38491685 136.89179274 53.5625 142.4375 C48.14143044 146.8514623 42.84158026 151.39782805 37.54296875 155.95703125 C32.60153069 160.20739685 27.61985002 164.40995067 22.63964844 168.61474609 C20.92793816 170.06088131 19.21768266 171.50872091 17.5078125 172.95703125 C16.9310376 173.44550537 16.3542627 173.93397949 15.76000977 174.43725586 C14.66923685 175.36111056 13.57857029 176.28509085 12.48803711 177.20922852 C9.00631866 180.15693763 5.50754781 183.08314206 2 186 C-1.05965274 184.65582013 -2.9347003 183.23917453 -5.09375 180.69921875 C-5.64933594 180.05146484 -6.20492187 179.40371094 -6.77734375 178.73632812 C-7.34582031 178.06021484 -7.91429687 177.38410156 -8.5 176.6875 C-9.06847656 176.02298828 -9.63695312 175.35847656 -10.22265625 174.67382812 C-11.32647425 173.37921096 -12.42312183 172.07843807 -13.51171875 170.77099609 C-14.79702207 169.24153575 -16.12889086 167.75143241 -17.46875 166.26953125 C-19 164 -19 164 -19.1171875 162.01171875 C-17.40899632 158.93578009 -14.82743499 156.97949642 -12.125 154.8125 C-11.53638184 154.32765137 -10.94776367 153.84280273 -10.34130859 153.34326172 C-8.56838594 151.88599295 -6.78574536 150.44151142 -5 149 C-3.2076743 147.54247671 -1.41596012 146.08420094 0.375 144.625 C1.70144531 143.54605469 1.70144531 143.54605469 3.0546875 142.4453125 C7.24649474 138.9651118 11.34398207 135.37966766 15.45043945 131.79956055 C19.95939957 127.8775046 24.54698064 124.06968135 29.19140625 120.30859375 C32.50299617 117.58654974 35.7528244 114.79826135 39 112 C43.34887939 108.25957156 47.70960221 104.53683657 52.125 100.875 C52.97320312 100.17117187 53.82140625 99.46734375 54.6953125 98.7421875 C56.74495205 97.19279896 58.66207467 96.0450634 61 95 C61 93.68 61 92.36 61 91 C60.40775635 90.72615479 59.8155127 90.45230957 59.20532227 90.17016602 C57.07882035 89.04182286 55.50894637 87.86920306 53.71484375 86.27734375 C53.10761475 85.74359131 52.50038574 85.20983887 51.87475586 84.65991211 C51.23546143 84.09151611 50.59616699 83.52312012 49.9375 82.9375 C48.58437887 81.74880878 47.2302065 80.56131318 45.875 79.375 C45.21242188 78.79492188 44.54984375 78.21484375 43.8671875 77.6171875 C41.43062696 75.50686101 38.94277142 73.46557686 36.4375 71.4375 C31.6084857 67.52693122 26.89505347 63.49541277 22.18896484 59.43896484 C18.68745747 56.4274197 15.15204479 53.46933791 11.5625 50.5625 C7.10401163 46.94573215 2.76239929 43.21154597 -1.5625 39.4375 C-7.25885683 34.46689481 -13.0340571 29.64641671 -19 25 C-18.41334724 21.92226513 -17.55427593 20.13655541 -15.48828125 17.79296875 C-14.97716797 17.20580078 -14.46605469 16.61863281 -13.93945312 16.01367188 C-13.40255859 15.41103516 -12.86566406 14.80839844 -12.3125 14.1875 C-11.53616211 13.30094727 -11.53616211 13.30094727 -10.74414062 12.39648438 C-9.69992631 11.20402543 -8.65321594 10.01374755 -7.60400391 8.82568359 C-5.04081892 5.90825629 -2.52017074 2.95458566 0 0 Z " fill="#6E48C3" transform="translate(148,32)"/>
<path d="M0 0 C10.89 0 21.78 0 33 0 C33 61.38 33 122.76 33 186 C22.11 186 11.22 186 0 186 C0 124.62 0 63.24 0 0 Z " fill="#141414" transform="translate(69,32)"/>
<path d="M0 0 C10.89 0 21.78 0 33 0 C33 61.38 33 122.76 33 186 C22.11 186 11.22 186 0 186 C0 124.62 0 63.24 0 0 Z " fill="#141414" transform="translate(0,32)"/>
</svg>
